<?xml version="1.0" encoding="utf-8"?>
<!-- Generator: Adobe Illustrator 23.0.0, SVG Export Plug-In . SVG Version: 6.00 Build 0)  -->
<svg version="1.1" id="Layer_1" xmlns="http://www.w3.org/2000/svg" xmlns:xlink="http://www.w3.org/1999/xlink" x="0px" y="0px"
	 viewBox="0 0 2500 2229" style="enable-background:new 0 0 2500 2229;" xml:space="preserve">
<style type="text/css">
	.st0{fill:#1CCB9E;}
	.st1{fill:#7A4EF4;}
	.st2{fill:#F9B721;}
	.st3{fill:#1DD1EF;}
	.st4{fill:#F98130;}
	.st5{fill:#FC1D82;}
	.st6{fill:#FCFCFD;}
	.st7{fill:#FFFFFF;}
	.st8{fill:#464B56;}
	.st9{fill:#F35723;}
	.st10{fill:#FCD500;}
	.st11{fill:#6DD64E;}
	.st12{fill:#333842;}
</style>
<g>
	<title>Slice 1</title>
</g>
<g id="Layer_3">
	<g>
		<g>
			<path class="st0" d="M1250,711.8v-105c-158.9,0-313.3,11-458.8,32.8c-142.2,21.3-270.6,51.9-381.4,91.2
				C293.4,772,200.4,821.2,133.4,877.2c-38.5,32.2-68.8,67-89.9,103.6c-24.7,42.7-37.3,87.7-37.3,133.7h105
				C111.3,892.1,621.1,711.8,1250,711.8z"/>
		</g>
		<path class="st0" d="M133.4,1351.8c67,56,160,105.3,276.4,146.4c110.9,39.2,239.2,69.9,381.4,91.2
			c145.5,21.8,299.9,32.8,458.8,32.8v-105c-628.9,0-1138.7-180.3-1138.7-402.7H6.3c0,46,12.5,91,37.3,133.7
			C64.6,1284.8,94.9,1319.6,133.4,1351.8z"/>
	</g>
	<g>
		<path class="st1" d="M1819.4,128.3l52.5-90.9c-39.9-23-85.1-34.7-134.5-34.6c-42.2,0-87.5,8.8-134.6,26.1
			c-82,30-171.2,85.9-265,166.1c-89.4,76.4-180.1,172.2-269.7,284.8C976.5,594.9,889.8,723,810.3,860.7l90.9,52.5
			C1215.7,368.5,1626.8,17.1,1819.4,128.3z"/>
		<path class="st2" d="M1598.7,913.2l90.9-52.5c-79.5-137.6-166.2-265.8-257.8-380.9c-89.5-112.5-180.3-208.3-269.7-284.8
			c-93.9-80.2-183-136.1-265-166.1C850,11.6,804.7,2.9,762.5,2.8c-49.4,0-94.6,11.6-134.5,34.6l52.5,90.9
			C873.2,17.1,1284.3,368.5,1598.7,913.2z"/>
		<path class="st3" d="M2388.7,1114.5h105c0-46-12.5-91-37.3-133.7c-21.1-36.5-51.4-71.4-89.9-103.6c-67-56-160-105.3-276.4-146.4
			c-110.9-39.2-239.2-69.9-381.4-91.2c-145.5-21.8-299.9-32.8-458.8-32.8v105C1878.9,711.8,2388.7,892.1,2388.7,1114.5z"/>
		<path class="st2" d="M486.2,266.1c-15,86-11.2,191.2,11.4,312.6c21.5,115.6,59.1,242.1,111.8,375.9
			c53.9,136.9,121.5,276.1,201,413.7l90.9-52.5C586.8,771.2,488,239.5,680.6,128.3l-52.5-90.9c-39.9,23-72.6,56.4-97.2,99.1
			C509.9,173.1,494.8,216.7,486.2,266.1z"/>
	</g>
	<g>
		<path class="st4" d="M901.3,913.2l-90.9-52.5c-79.5,137.6-147.1,276.8-201,413.7c-52.7,133.8-90.3,260.3-111.8,375.9
			c-22.6,121.4-26.4,226.6-11.4,312.6c8.6,49.5,23.7,93.1,44.7,129.6c24.6,42.8,57.3,76.1,97.2,99.1l52.5-90.9
			C488,1989.5,586.8,1457.8,901.3,913.2z"/>
		<path class="st4" d="M897.2,2200.2c82-30,171.2-85.9,265-166.1c89.4-76.4,180.1-172.2,269.7-284.8
			c91.6-115.1,178.3-243.3,257.8-380.9l-90.9-52.5c-314.5,544.7-725.5,896-918.1,784.8l-52.5,90.9c39.9,23,85.1,34.7,134.5,34.6
			C804.8,2226.2,850.1,2217.4,897.2,2200.2z"/>
	</g>
	<path class="st3" d="M1250,1517.2v105c158.9,0,313.3-11,458.8-32.8c142.2-21.3,270.5-51.9,381.4-91.2
		c116.4-41.2,209.4-90.4,276.4-146.4c38.5-32.2,68.8-67,89.9-103.6c24.7-42.7,37.3-87.7,37.3-133.7h-105
		C2388.7,1336.9,1878.9,1517.2,1250,1517.2z"/>
	<path class="st5" d="M901.3,1315.8l-90.9,52.5c79.5,137.6,166.2,265.8,257.8,380.9c89.5,112.5,180.3,208.3,269.7,284.8
		c93.9,80.2,183,136.1,265,166.1c47.1,17.3,92.4,26,134.6,26.1c49.4,0,94.6-11.6,134.5-34.6l-52.5-90.9
		C1626.8,2211.9,1215.7,1860.5,901.3,1315.8z"/>
	<path class="st5" d="M1819.4,2100.7l52.5,90.9c39.9-23,72.6-56.4,97.2-99.1c21.1-36.6,36.1-80.2,44.7-129.6
		c15-86,11.2-191.2-11.4-312.6c-21.5-115.6-59.1-242.1-111.8-375.9c-53.9-136.9-121.5-276.1-201-413.7l-90.9,52.5
		C1913.2,1457.8,2012,1989.5,1819.4,2100.7z"/>
	<path class="st1" d="M1598.7,1315.8l90.9,52.5c79.5-137.6,147.1-276.8,201-413.7c52.7-133.8,90.3-260.3,111.8-375.9
		c22.6-121.4,26.4-226.6,11.4-312.6c-8.6-49.5-23.7-93.1-44.7-129.6c-24.6-42.8-57.3-76.1-97.2-99.1l-52.5,90.9
		C2012,239.5,1913.2,771.2,1598.7,1315.8z"/>
</g>
<g>
	<path class="st6" d="M720.5,1646.5c-3.3-0.3-6.7-0.8-9.9-1.4C713.8,1645.7,717.1,1646.1,720.5,1646.5z"/>
	<path class="st6" d="M602.1,1531.8c-0.1-0.6-0.2-1.1-0.2-1.7C601.9,1530.7,602,1531.3,602.1,1531.8z"/>
	<path class="st7" d="M645.6,799v342.8V1514c0,23.5,9.2,45.6,26,62.4c16.8,16.8,38.9,26,62.4,26h1135.2c23.5,0,45.6-9.2,62.4-26
		s26-38.9,26-62.4v-372.2V799v-44.7h-1312V799z M1630.2,1152.8l-84.2-84.2c-7.8-7.8-7.8-20.5,0-28.4s20.5-7.8,28.4,0l113.9,113.9
		c7.8,7.8,7.8,20.5,0,28.4l-57,57l-57,57c-7.8,7.8-20.5,7.8-28.4,0l-1.4-1.4c-7.8-7.8-7.8-20.5,0-28.4l77-77l8.5-8.5l0,0l14.2-14.2
		L1630.2,1152.8z M1216.6,1328.1l138.7-334.8c4.2-10.2,16-15.1,26.2-10.9c10.2,4.2,15.1,16,10.9,26.2l-138.7,334.8
		c-4.2,10.2-16,15.1-26.2,10.9C1217.2,1350.1,1212.3,1338.3,1216.6,1328.1z M920.6,1154.2l57-57l57-57c7.8-7.8,20.5-7.8,28.4,0
		l1.4,1.4c7.8,7.8,7.8,20.5,0,28.4l-77,77l-8.5,8.5c0,0,0,0,0,0l-14.2,14.2l14.2,14.2l84.2,84.2c7.8,7.8,7.8,20.5,0,28.4v0
		c-7.8,7.8-20.5,7.8-28.4,0l-113.9-113.9C912.7,1174.8,912.7,1162,920.6,1154.2z"/>
	<path class="st6" d="M607.6,1555.5c-0.8-2.3-1.4-4.6-2.1-6.9C606.1,1551,606.8,1553.3,607.6,1555.5z"/>
	<path class="st6" d="M629.8,1596.6c6.5,8.2,14,15.6,22.2,22.1C643.7,1612.2,636.3,1604.8,629.8,1596.6z"/>
	<path class="st6" d="M623.1,1587.4c-3.4-5-6.4-10.3-9-15.8C616.7,1577.1,619.8,1582.4,623.1,1587.4z"/>
	<path class="st6" d="M1869.2,1647.2L1869.2,1647.2c73.2,0,133.2-59.9,133.2-133.2v0C2002.4,1587.3,1942.5,1647.2,1869.2,1647.2z"/>
	<path class="st6" d="M609.7,1561.6c-0.5-1.2-0.9-2.4-1.3-3.6C608.8,1559.2,609.3,1560.4,609.7,1561.6z"/>
	<path class="st6" d="M657.1,1622.5c-1.7-1.2-3.5-2.5-5.1-3.8C653.6,1620,655.4,1621.3,657.1,1622.5z"/>
	<path class="st6" d="M667.9,1629.5c-2.8-1.6-5.5-3.3-8.2-5.1C662.4,1626.2,665.1,1627.9,667.9,1629.5z"/>
	<path class="st6" d="M629.1,1595.8c-1.1-1.4-2.2-2.9-3.3-4.4C626.9,1592.9,628,1594.3,629.1,1595.8z"/>
	<path class="st6" d="M704.1,1643.8c-4.3-1-8.5-2.2-12.6-3.6C695.6,1641.6,699.8,1642.8,704.1,1643.8z"/>
	<path class="st6" d="M679.4,1635.4c-3.9-1.8-7.8-3.8-11.5-5.9C671.6,1631.6,675.4,1633.6,679.4,1635.4z"/>
	<path class="st6" d="M691.5,1640.2c-2.1-0.7-4.1-1.5-6.1-2.2C687.4,1638.7,689.4,1639.5,691.5,1640.2z"/>
	<path class="st8" d="M1869.2,581.8H734.1c-73.2,0-133.2,59.9-133.2,133.2v39.3h0V1514c0,5.5,0.3,10.8,1,16.1
		c0.1,0.6,0.1,1.1,0.2,1.7c0.8,5.7,1.9,11.3,3.4,16.8c0.6,2.3,1.3,4.6,2.1,6.9c0.3,0.8,0.6,1.6,0.8,2.5c0.4,1.2,0.9,2.4,1.3,3.6
		c1.3,3.4,2.8,6.8,4.4,10.1c2.7,5.5,5.7,10.8,9,15.8c0.9,1.3,1.8,2.7,2.7,3.9c1.1,1.5,2.2,3,3.3,4.4c0.2,0.3,0.4,0.5,0.6,0.8
		c6.5,8.2,14,15.6,22.2,22.1c1.7,1.3,3.4,2.6,5.1,3.8c0.9,0.6,1.7,1.2,2.6,1.8c2.7,1.8,5.4,3.5,8.2,5.1c3.7,2.1,7.5,4.1,11.5,5.9
		c2,0.9,4,1.7,6,2.5c2,0.8,4.1,1.5,6.1,2.2c4.1,1.4,8.3,2.6,12.6,3.6c2.1,0.5,4.3,0.9,6.5,1.3c3.3,0.6,6.6,1.1,9.9,1.4
		c4.5,0.5,9,0.7,13.6,0.7h1135.2c73.2,0,133.2-59.9,133.2-133.2V754.3V715C2002.4,641.7,1942.5,581.8,1869.2,581.8z M1054.9,668.1
		c0-23.7,19.4-43.1,43.1-43.1h727.4c23.7,0,43.1,19.4,43.1,43.1v0c0,23.7-19.4,43.1-43.1,43.1H1098
		C1074.3,711.2,1054.9,691.8,1054.9,668.1L1054.9,668.1z M974.5,633.7c19,0,34.3,15.4,34.3,34.3c0,19-15.4,34.3-34.3,34.3
		s-34.3-15.4-34.3-34.3C940.1,649.1,955.5,633.7,974.5,633.7z M871.4,633.7c19,0,34.3,15.4,34.3,34.3c0,19-15.4,34.3-34.3,34.3
		c-19,0-34.3-15.4-34.3-34.3C837.1,649.1,852.5,633.7,871.4,633.7z M768.4,633.7c19,0,34.3,15.4,34.3,34.3c0,19-15.4,34.3-34.3,34.3
		c-19,0-34.3-15.4-34.3-34.3C734.1,649.1,749.4,633.7,768.4,633.7z M1957.7,799v342.8V1514c0,23.5-9.2,45.6-26,62.4
		s-38.9,26-62.4,26H734.1c-23.5,0-45.6-9.2-62.4-26c-16.8-16.8-26-38.9-26-62.4v-372.2V799v-44.7h1312V799z"/>
	<circle class="st9" cx="768.4" cy="668.1" r="34.3"/>
	<circle class="st10" cx="871.4" cy="668.1" r="34.3"/>
	
		<ellipse transform="matrix(0.9871 -0.1602 0.1602 0.9871 -94.428 164.7208)" class="st11" cx="974.5" cy="668.1" rx="34.3" ry="34.3"/>
	<path class="st12" d="M1098,711.2h727.4c23.7,0,43.1-19.4,43.1-43.1v0c0-23.7-19.4-43.1-43.1-43.1H1098
		c-23.7,0-43.1,19.4-43.1,43.1v0C1054.9,691.8,1074.3,711.2,1098,711.2z"/>
	<path class="st8" d="M1227.4,1354.4c10.2,4.2,22-0.7,26.2-10.9l138.7-334.8c4.2-10.2-0.7-22-10.9-26.2c-10.2-4.2-22,0.7-26.2,10.9
		l-138.7,334.8C1212.3,1338.3,1217.2,1350.1,1227.4,1354.4z"/>
	<path class="st8" d="M1630.2,1181.2l-8.5,8.5l-77,77c-7.8,7.8-7.8,20.5,0,28.4l1.4,1.4c7.8,7.8,20.5,7.8,28.4,0l57-57l57-57
		c7.8-7.8,7.8-20.5,0-28.4l-113.9-113.9c-7.8-7.8-20.5-7.8-28.4,0s-7.8,20.5,0,28.4l84.2,84.2l14.2,14.2L1630.2,1181.2
		L1630.2,1181.2z"/>
	<path class="st8" d="M1034.5,1296.5c7.8,7.8,20.5,7.8,28.4,0v0c7.8-7.8,7.8-20.5,0-28.4l-84.2-84.2l-14.2-14.2l14.2-14.2
		c0,0,0,0,0,0l8.5-8.5l77-77c7.8-7.8,7.8-20.5,0-28.4l-1.4-1.4c-7.8-7.8-20.5-7.8-28.4,0l-57,57l-57,57c-7.8,7.8-7.8,20.5,0,28.4
		L1034.5,1296.5z"/>
</g>
</svg>
