<?xml version="1.0" encoding="utf-8"?>
<!-- Generator: Adobe Illustrator 23.0.0, SVG Export Plug-In . SVG Version: 6.00 Build 0)  -->
<svg version="1.1" id="Layer_1" xmlns="http://www.w3.org/2000/svg" xmlns:xlink="http://www.w3.org/1999/xlink" x="0px" y="0px"
	 viewBox="0 0 2500 2229" style="enable-background:new 0 0 2500 2229;" xml:space="preserve">
<style type="text/css">
	.st0{fill:#1CCB9E;}
	.st1{fill:#7A4EF4;}
	.st2{fill:#F9B721;}
	.st3{fill:#1DD1EF;}
	.st4{fill:#F98130;}
	.st5{fill:#FC1D82;}
	.st6{fill:none;}
	.st7{fill:#70C3E0;}
	.st8{opacity:0.8;}
	.st9{fill:#FFFFFF;}
	.st10{fill:#F2F0F0;}
	.st11{fill:#81B23B;}
	.st12{fill:#A6D63E;}
	.st13{fill:#EFDC30;}
	.st14{opacity:0.2;fill:#FFFFFF;}
</style>
<g>
	<title>Slice 1</title>
</g>
<g id="Layer_3">
	<g>
		<g>
			<path class="st0" d="M1250,711.8v-105c-158.9,0-313.3,11-458.8,32.8c-142.2,21.3-270.6,51.9-381.4,91.2
				C293.4,772,200.4,821.2,133.4,877.2c-38.5,32.2-68.8,67-89.9,103.6c-24.7,42.7-37.3,87.7-37.3,133.7h105
				C111.3,892.1,621.1,711.8,1250,711.8z"/>
		</g>
		<path class="st0" d="M133.4,1351.8c67,56,160,105.3,276.4,146.4c110.9,39.2,239.2,69.9,381.4,91.2
			c145.5,21.8,299.9,32.8,458.8,32.8v-105c-628.9,0-1138.7-180.3-1138.7-402.7H6.3c0,46,12.5,91,37.3,133.7
			C64.6,1284.8,94.9,1319.6,133.4,1351.8z"/>
	</g>
	<g>
		<path class="st1" d="M1819.4,128.3l52.5-90.9c-39.9-23-85.1-34.7-134.5-34.6c-42.2,0-87.5,8.8-134.6,26.1
			c-82,30-171.2,85.9-265,166.1c-89.4,76.4-180.1,172.2-269.7,284.8C976.5,594.9,889.8,723,810.3,860.7l90.9,52.5
			C1215.7,368.5,1626.8,17.1,1819.4,128.3z"/>
		<path class="st2" d="M1598.7,913.2l90.9-52.5c-79.5-137.6-166.2-265.8-257.8-380.9c-89.5-112.5-180.3-208.3-269.7-284.8
			c-93.9-80.2-183-136.1-265-166.1C850,11.6,804.7,2.9,762.5,2.8c-49.4,0-94.6,11.6-134.5,34.6l52.5,90.9
			C873.2,17.1,1284.3,368.5,1598.7,913.2z"/>
		<path class="st3" d="M2388.7,1114.5h105c0-46-12.5-91-37.3-133.7c-21.1-36.5-51.4-71.4-89.9-103.6c-67-56-160-105.3-276.4-146.4
			c-110.9-39.2-239.2-69.9-381.4-91.2c-145.5-21.8-299.9-32.8-458.8-32.8v105C1878.9,711.8,2388.7,892.1,2388.7,1114.5z"/>
		<path class="st2" d="M486.2,266.1c-15,86-11.2,191.2,11.4,312.6c21.5,115.6,59.1,242.1,111.8,375.9
			c53.9,136.9,121.5,276.1,201,413.7l90.9-52.5C586.8,771.2,488,239.5,680.6,128.3l-52.5-90.9c-39.9,23-72.6,56.4-97.2,99.1
			C509.9,173.1,494.8,216.7,486.2,266.1z"/>
	</g>
	<g>
		<path class="st4" d="M901.3,913.2l-90.9-52.5c-79.5,137.6-147.1,276.8-201,413.7c-52.7,133.8-90.3,260.3-111.8,375.9
			c-22.6,121.4-26.4,226.6-11.4,312.6c8.6,49.5,23.7,93.1,44.7,129.6c24.6,42.8,57.3,76.1,97.2,99.1l52.5-90.9
			C488,1989.5,586.8,1457.8,901.3,913.2z"/>
		<path class="st4" d="M897.2,2200.2c82-30,171.2-85.9,265-166.1c89.4-76.4,180.1-172.2,269.7-284.8
			c91.6-115.1,178.3-243.3,257.8-380.9l-90.9-52.5c-314.5,544.7-725.5,896-918.1,784.8l-52.5,90.9c39.9,23,85.1,34.7,134.5,34.6
			C804.8,2226.2,850.1,2217.4,897.2,2200.2z"/>
	</g>
	<path class="st3" d="M1250,1517.2v105c158.9,0,313.3-11,458.8-32.8c142.2-21.3,270.5-51.9,381.4-91.2
		c116.4-41.2,209.4-90.4,276.4-146.4c38.5-32.2,68.8-67,89.9-103.6c24.7-42.7,37.3-87.7,37.3-133.7h-105
		C2388.7,1336.9,1878.9,1517.2,1250,1517.2z"/>
	<path class="st5" d="M901.3,1315.8l-90.9,52.5c79.5,137.6,166.2,265.8,257.8,380.9c89.5,112.5,180.3,208.3,269.7,284.8
		c93.9,80.2,183,136.1,265,166.1c47.1,17.3,92.4,26,134.6,26.1c49.4,0,94.6-11.6,134.5-34.6l-52.5-90.9
		C1626.8,2211.9,1215.7,1860.5,901.3,1315.8z"/>
	<path class="st5" d="M1819.4,2100.7l52.5,90.9c39.9-23,72.6-56.4,97.2-99.1c21.1-36.6,36.1-80.2,44.7-129.6
		c15-86,11.2-191.2-11.4-312.6c-21.5-115.6-59.1-242.1-111.8-375.9c-53.9-136.9-121.5-276.1-201-413.7l-90.9,52.5
		C1913.2,1457.8,2012,1989.5,1819.4,2100.7z"/>
	<path class="st1" d="M1598.7,1315.8l90.9,52.5c79.5-137.6,147.1-276.8,201-413.7c52.7-133.8,90.3-260.3,111.8-375.9
		c22.6-121.4,26.4-226.6,11.4-312.6c-8.6-49.5-23.7-93.1-44.7-129.6c-24.6-42.8-57.3-76.1-97.2-99.1l-52.5,90.9
		C2012,239.5,1913.2,771.2,1598.7,1315.8z"/>
</g>
<g>
	<path class="st6" d="M850.4,1584.4l935-160c19.1-3.3,35.8-13.9,47.1-29.9c11.3-16,15.8-35.3,12.5-54.4l-108.8-636
		c-3.3-19.1-13.9-35.8-29.9-47.1c-5.3-3.8-11-6.7-16.9-9l-876.6,932.8C824.8,1585.3,837.6,1586.6,850.4,1584.4z"/>
	<path class="st7" d="M1727.5,627.1c-3.8-2.7-7.6-5.1-11.6-7.2l-26.4,28.1c-11.9-4.5-24.7-5.7-37.5-3.6l-935,160
		c-19.1,3.3-35.8,13.9-47.1,29.9c-11.3,16-15.8,35.3-12.5,54.4l94.9,554.9l189.7-268c24.1-34.1,71.3-42.2,105.4-18l278.4,197
		l288.6-407.7c24.1-34.1,71.3-42.2,105.4-18l104.9,74.2L1772.3,698C1767.4,669.3,1751.5,644.1,1727.5,627.1z M1497.3,954.8
		c-62.9,10.8-122.6-31.5-133.4-94.4c-10.8-62.9,31.5-122.6,94.4-133.4s122.6,31.5,133.4,94.4
		C1602.5,884.4,1560.2,944.1,1497.3,954.8z"/>
	<g class="st8">
		<path class="st9" d="M1101.2,844.4l-286.9,49.1c-16.3,2.8-27.3,18.4-24.6,34.7l0,0c2.8,16.3,18.4,27.3,34.7,24.6l286.9-49.1
			c16.3-2.8,27.3-18.4,24.6-34.7l0,0C1133.1,852.7,1117.5,841.6,1101.2,844.4z"/>
		<path class="st9" d="M1060.4,973.4l-286.9,49.1c-16.3,2.8-27.3,18.4-24.6,34.7l0,0c2.8,16.3,18.4,27.3,34.7,24.6l286.9-49.1
			c16.3-2.8,27.3-18.4,24.6-34.7l0,0C1092.3,981.6,1076.7,970.6,1060.4,973.4z"/>
		<path class="st9" d="M857.6,1008.1l204.7-35c-16.3,2.8-31.9-8.3-34.7-24.6v0c-2.8-16.3,8.3-31.9,24.6-34.7l-204.7,35
			c16.3-2.8,31.9,8.3,34.7,24.6v0C885,989.7,873.9,1005.3,857.6,1008.1z"/>
		<circle class="st9" cx="1189.2" cy="859.9" r="30.1"/>
	</g>
	<polygon class="st10" points="1639.6,572.4 704.6,732.3 704.6,732.3 1639.6,572.4 	"/>
	<g>
		<path class="st11" d="M1614.3,946.9l-288.6,407.7l211.2,149.5l254.7-43.6c28.7-4.9,53.9-20.8,70.8-44.8c17-24,23.6-53,18.7-81.7
			l-56.6-330.9l-104.9-74.2C1685.6,904.8,1638.4,912.8,1614.3,946.9z"/>
		<path class="st12" d="M1047.3,1157.6c-34.1-24.1-81.3-16.1-105.4,18l-189.7,268l13.9,81.1c3.3,19.1,13.9,35.8,29.9,47.1
			c5.3,3.8,11,6.7,16.9,9l-26.4,28.1c21.4,11.6,45.9,15.6,70.1,11.5l395.9-67.7l284.4-48.7l-211.2-149.5L1047.3,1157.6z"/>
		
			<ellipse transform="matrix(0.7071 -0.7071 0.7071 0.7071 -161.8018 1291.3021)" class="st13" cx="1477.8" cy="841" rx="115.5" ry="115.5"/>
		<path class="st14" d="M730,1530.9l-7.7-45l-101.1-591c-4.9-28.7,1.7-57.7,18.7-81.7s42.1-39.9,70.8-44.8l935-160
			c24.2-4.1,48.6-0.1,70.1,11.5l25.7-27.3c-29.4-18.4-65.3-26.5-101.9-20.2l-935.1,160c-79.2,13.6-133,89.5-119.4,168.7l108.8,636
			c7.3,42.6,32.6,77.9,66.8,99.2l25.7-27.3c-4-2.1-7.9-4.6-11.6-7.2C750.8,1584.8,734.9,1559.6,730,1530.9z"/>
		<path class="st7" d="M710.8,768.4c-28.7,4.9-53.9,20.8-70.8,44.8s-23.6,53-18.7,81.7l101.1,591l29.9-42.2l-94.9-554.9
			c-3.3-19.1,1.2-38.4,12.5-54.4c11.3-16,28.1-26.6,47.1-29.9l935-160c12.7-2.2,25.6-0.9,37.5,3.6l26.4-28.1
			c-21.4-11.6-45.9-15.6-70.1-11.5L710.8,768.4z"/>
		<path class="st14" d="M710.8,768.4c-28.7,4.9-53.9,20.8-70.8,44.8s-23.6,53-18.7,81.7l101.1,591l29.9-42.2l-94.9-554.9
			c-3.3-19.1,1.2-38.4,12.5-54.4c11.3-16,28.1-26.6,47.1-29.9l935-160c12.7-2.2,25.6-0.9,37.5,3.6l26.4-28.1
			c-21.4-11.6-45.9-15.6-70.1-11.5L710.8,768.4z"/>
		<path class="st12" d="M796,1571.9c-16-11.3-26.6-28.1-29.9-47.1l-13.9-81.1l-29.9,42.2l7.7,45c4.9,28.7,20.8,53.9,44.8,70.8
			c3.8,2.7,7.6,5.1,11.6,7.2l26.4-28.1C807,1578.7,801.3,1575.7,796,1571.9z"/>
		<path class="st14" d="M796,1571.9c-16-11.3-26.6-28.1-29.9-47.1l-13.9-81.1l-29.9,42.2l7.7,45c4.9,28.7,20.8,53.9,44.8,70.8
			c3.8,2.7,7.6,5.1,11.6,7.2l26.4-28.1C807,1578.7,801.3,1575.7,796,1571.9z"/>
	</g>
	<path class="st14" d="M704.6,732.3L560.5,757l24.7,144.1C571.6,821.8,625.3,745.9,704.6,732.3z"/>
	<path class="st10" d="M1741.6,592.6l-52.1,55.5c5.9,2.2,11.6,5.2,16.9,9c16,11.3,26.6,28.1,29.9,47.1l108.8,636
		c3.3,19.1-1.2,38.4-12.5,54.4c-11.3,16-28.1,26.6-47.1,29.9l-935,160c-12.7,2.2-25.6,0.9-37.5-3.6l-52.1,55.5
		c29.4,18.4,65.3,26.5,101.9,20.2l935-160c79.3-13.6,133-89.5,119.4-168.7l-108.8-636C1801.1,649.2,1775.8,614,1741.6,592.6z"/>
	<path class="st10" d="M796,1571.9c-16-11.3-26.6-28.1-29.9-47.1l-108.8-636c-3.3-19.1,1.2-38.4,12.5-54.4
		c11.3-16,28.1-26.6,47.1-29.9l935-160c12.7-2.2,25.6-0.9,37.5,3.6l52.1-55.5c-29.4-18.4-65.3-26.5-101.9-20.2l-935.1,160
		c-79.2,13.6-133,89.5-119.4,168.7l108.8,636c7.3,42.6,32.6,77.9,66.8,99.2l52.1-55.5C807,1578.7,801.3,1575.7,796,1571.9z"/>
	<path class="st14" d="M716.9,804.5c-19.1,3.3-35.8,13.9-47.1,29.9c-11.3,16-15.8,35.3-12.5,54.4l108.8,636
		c3.3,19.1,13.9,35.8,29.9,47.1c5.3,3.8,11,6.7,16.9,9L1689.5,648c-11.9-4.5-24.7-5.7-37.5-3.6L716.9,804.5z"/>
</g>
<g>
	<path class="st6" d="M700.1,1393.4l924.4,213.1c18.8,4.3,38.4,1,55-9.4c16.6-10.4,28.2-26.5,32.5-45.4l145-628.8
		c4.3-18.8,1-38.4-9.4-55c-3.5-5.5-7.5-10.5-12.2-14.8L666.9,1375.7C676.1,1384.4,687.5,1390.5,700.1,1393.4z"/>
	<path class="st7" d="M1878.6,848.6c-2.4-3.9-5.1-7.6-7.9-11.1l-35.2,15.7c-9.3-8.7-20.6-14.8-33.2-17.7L877.9,622.4
		c-18.8-4.3-38.4-1-55,9.4c-16.6,10.4-28.2,26.5-32.5,45.4l-126.5,548.6l278.4-174.1c35.4-22.1,82.1-11.4,104.2,24l180.8,289.2
		l423.5-264.8c35.4-22.1,82.1-11.4,104.2,24l68.1,108.9l69.6-301.7C1899.2,902.9,1894.2,873.6,1878.6,848.6z M1539.8,1062.2
		c-62.2-14.3-101-76.4-86.6-138.5c14.3-62.2,76.4-101,138.5-86.6c62.2,14.3,101,76.4,86.6,138.5
		C1664,1037.7,1602,1076.5,1539.8,1062.2z"/>
	<g class="st8">
		<path class="st9" d="M1217,807.5l-283.6-65.4c-16.1-3.7-32.3,6.4-36,22.5l0,0c-3.7,16.1,6.4,32.3,22.5,36l283.6,65.4
			c16.1,3.7,32.3-6.4,36-22.5l0,0C1243.2,827.4,1233.1,811.2,1217,807.5z"/>
		<path class="st9" d="M1129.6,910.7L846,845.3c-16.1-3.7-32.3,6.4-36,22.5l0,0c-3.7,16.1,6.4,32.3,22.5,36l283.6,65.4
			c16.1,3.7,32.3-6.4,36-22.5l0,0C1155.9,930.6,1145.7,914.4,1129.6,910.7z"/>
		<path class="st9" d="M929.1,864.5l202.4,46.7c-16.1-3.7-26.3-19.9-22.5-36v0c3.7-16.1,19.9-26.2,36-22.5l-202.4-46.7
			c16.1,3.7,26.3,19.9,22.5,36v0C961.4,858,945.2,868.2,929.1,864.5z"/>
		<circle class="st9" cx="1292.2" cy="855.6" r="30.1"/>
	</g>
	<polygon class="st10" points="1818.7,764.2 894.3,551.1 894.3,551.1 1818.7,764.2 	"/>
	<g>
		<path class="st11" d="M1650.8,1100l-423.5,264.8l137.2,219.4l251.8,58.1c28.4,6.5,57.7,1.6,82.6-14c24.9-15.6,42.2-39.8,48.8-68.2
			l75.4-327.1L1755,1124C1732.8,1088.6,1686.2,1077.8,1650.8,1100z"/>
		<path class="st12" d="M1046.5,1075.6c-22.1-35.4-68.8-46.2-104.2-24l-278.4,174.1l-18.5,80.2c-4.3,18.8-1,38.4,9.4,55
			c3.5,5.5,7.5,10.5,12.2,14.8l-35.2,15.7c15.3,18.9,36.3,32.1,60.2,37.6l391.4,90.2l281.2,64.8l-137.2-219.4L1046.5,1075.6z"/>
		
			<ellipse transform="matrix(0.7071 -0.7071 0.7071 0.7071 -212.8403 1385.3148)" class="st13" cx="1565.8" cy="949.6" rx="115.5" ry="115.5"/>
		<path class="st14" d="M609.7,1297.7l10.3-44.5l134.7-584.2c6.5-28.4,23.9-52.6,48.8-68.2c24.9-15.6,54.3-20.6,82.6-14l924.4,213.1
			c23.9,5.5,44.9,18.7,60.2,37.6l34.2-15.3c-20-28.3-50-49.6-86.2-58L894.3,551.1C816,533,737.1,582.3,719,660.7l-145,628.8
			c-9.7,42.1,0.1,84.4,23.4,117.3l34.2-15.3c-2.8-3.5-5.5-7.2-7.9-11.1C608.1,1355.4,603.1,1326,609.7,1297.7z"/>
		<path class="st7" d="M886.1,586.7c-28.4-6.5-57.7-1.6-82.6,14c-24.9,15.6-42.2,39.8-48.8,68.2L620,1253.1l43.9-27.4l126.5-548.6
			c4.3-18.8,15.9-35,32.5-45.4c16.6-10.4,36.2-13.7,55-9.4l924.4,213.1c12.6,2.9,23.9,9,33.2,17.7l35.2-15.7
			c-15.3-18.9-36.3-32.1-60.2-37.6L886.1,586.7z"/>
		<path class="st14" d="M886.1,586.7c-28.4-6.5-57.7-1.6-82.6,14c-24.9,15.6-42.2,39.8-48.8,68.2L620,1253.1l43.9-27.4l126.5-548.6
			c4.3-18.8,15.9-35,32.5-45.4c16.6-10.4,36.2-13.7,55-9.4l924.4,213.1c12.6,2.9,23.9,9,33.2,17.7l35.2-15.7
			c-15.3-18.9-36.3-32.1-60.2-37.6L886.1,586.7z"/>
		<path class="st12" d="M654.7,1360.9c-10.4-16.6-13.7-36.2-9.4-55l18.5-80.2l-43.9,27.4l-10.3,44.5c-6.5,28.4-1.6,57.7,14,82.6
			c2.4,3.9,5.1,7.6,7.9,11.1l35.2-15.7C662.3,1371.4,658.2,1366.4,654.7,1360.9z"/>
		<path class="st14" d="M654.7,1360.9c-10.4-16.6-13.7-36.2-9.4-55l18.5-80.2l-43.9,27.4l-10.3,44.5c-6.5,28.4-1.6,57.7,14,82.6
			c2.4,3.9,5.1,7.6,7.9,11.1l35.2-15.7C662.3,1371.4,658.2,1366.4,654.7,1360.9z"/>
	</g>
	<path class="st14" d="M894.3,551.1l-142.4-32.8L719,660.7C737.1,582.3,816,533,894.3,551.1z"/>
	<path class="st10" d="M1904.9,822.2l-69.5,31.1c4.6,4.3,8.7,9.3,12.2,14.8c10.4,16.6,13.7,36.2,9.4,55l-145,628.8
		c-4.3,18.8-15.9,35-32.5,45.4c-16.6,10.4-36.2,13.7-55,9.4l-924.4-213.1c-12.6-2.9-23.9-9-33.2-17.7l-69.5,31.1
		c20,28.3,50,49.6,86.2,58l924.4,213.1c78.3,18.1,157.2-31.3,175.3-109.6l145-628.8C1938,897.4,1928.2,855.1,1904.9,822.2z"/>
	<path class="st10" d="M654.7,1360.9c-10.4-16.6-13.7-36.2-9.4-55l145-628.8c4.3-18.8,15.9-35,32.5-45.4c16.6-10.4,36.2-13.7,55-9.4
		l924.4,213.1c12.6,2.9,23.9,9,33.2,17.7l69.5-31.1c-20-28.3-50-49.6-86.2-58L894.3,551.1C816,533,737.1,582.3,719,660.7l-145,628.8
		c-9.7,42.1,0.1,84.4,23.4,117.3l69.5-31.1C662.3,1371.4,658.2,1366.4,654.7,1360.9z"/>
	<path class="st14" d="M877.9,622.4c-18.8-4.3-38.4-1-55,9.4c-16.6,10.4-28.2,26.5-32.5,45.4l-145,628.8c-4.3,18.8-1,38.4,9.4,55
		c3.5,5.5,7.5,10.5,12.2,14.8l1168.6-522.5c-9.3-8.7-20.6-14.8-33.2-17.7L877.9,622.4z"/>
</g>
</svg>
